<svg width="182" height="258" viewBox="0 0 182 258" fill="none" xmlns="http://www.w3.org/2000/svg">
<path fill-rule="evenodd" clip-rule="evenodd" d="M0 114V186V258H30V186H30.0024C30.0024 180.485 31.0887 175.024 33.1993 169.928C35.3099 164.833 38.4034 160.203 42.3032 156.303C46.203 152.403 50.8328 149.31 55.9282 147.199C61.0236 145.089 66.4848 144.002 72 144.002V144H79V114H72C62.5448 114 53.1822 115.862 44.4468 119.481C39.3265 121.602 34.4805 124.301 30 127.519V114H0Z" fill="black"/>
<path fill-rule="evenodd" clip-rule="evenodd" d="M110 114L110 113.998C115.515 113.998 120.976 112.911 126.072 110.801C131.167 108.69 135.797 105.597 139.697 101.697C143.597 97.797 146.69 93.1672 148.801 88.0718C150.911 82.9764 151.998 77.5152 151.998 72C151.998 66.4848 150.911 61.0236 148.801 55.9282C146.69 50.8328 143.597 46.203 139.697 42.3032C135.797 38.4034 131.167 35.3099 126.072 33.1993C120.976 31.0887 115.515 30.0024 110 30.0024L110 0C119.455 0 128.818 1.86233 137.553 5.48067C146.289 9.09901 154.226 14.4025 160.912 21.0883C167.598 27.7741 172.901 35.7113 176.519 44.4468C180.138 53.1822 182 62.5448 182 72C182 81.4552 180.138 90.8178 176.519 99.5532C172.901 108.289 167.598 116.226 160.912 122.912C158.732 125.092 156.419 127.125 153.989 129C156.419 130.875 158.732 132.908 160.912 135.088C167.598 141.774 172.901 149.711 176.519 158.447C180.138 167.182 182 176.545 182 186V258H152V186H151.998C151.998 180.485 150.911 175.024 148.801 169.928C146.69 164.833 143.597 160.203 139.697 156.303C135.797 152.403 131.167 149.31 126.072 147.199C120.976 145.089 115.515 144.002 110 144.002L110 144H103V114H110Z" fill="#E65F2B"/>
<path fill-rule="evenodd" clip-rule="evenodd" d="M0 30V72V90H30V72H30.0024C30.0024 66.4848 31.0887 61.0236 33.1993 55.9282C35.3099 50.8328 38.4034 46.203 42.3032 42.3032C46.203 38.4034 50.8328 35.3099 55.9282 33.1993C61.0236 31.0887 66.4848 30.0024 72 30.0024V30H110V0H72H30H0V30Z" fill="#E65F2B"/>
</svg>
